<?xml version="1.0" encoding="UTF-8"?>
<svg width="20px" height="20px" viewBox="0 0 20 20" version="1.1"
    xmlns="http://www.w3.org/2000/svg"
    xmlns:xlink="http://www.w3.org/1999/xlink">
    <title>Grid-Indicator-Alert</title>
    <defs>
        <path d="M16.9560562,14.650625 C16.8361877,15.009375 16.4984561,15.252625 16.1196017,15.25 L11.7465901,15.25 C11.7465901,16.216875 10.9635077,17 9.99668544,17 C9.03248799,17 8.25028062,16.216875 8.25028062,15.25 L3.87551905,15.25 C3.49928955,15.25 3.16418282,15.009375 3.04431435,14.6515 C2.92619579,14.2945 3.04956406,13.90075 3.35054766,13.675 C4.2342495,13.016125 4.75572108,11.9775 4.75484612,10.875 L4.75484612,8.25 C4.75484612,5.35025 7.10496804,3 10.0028101,3 C12.9006522,3 15.2498991,5.35025 15.2498991,8.25 L15.2498991,10.875 C15.2472743,11.9775 15.766121,13.016125 16.6498228,13.675 C16.9508064,13.90075 17.0732998,14.293625 16.9560562,14.650625" id="path-1"></path>
    </defs>
    <g id="Grid-Indicator-Alert" stroke="none" stroke-width="1" fill="none" fill-rule="evenodd">
        <rect id="Rectangle" fill="#E5E8EB" x="0" y="0" width="20" height="20" rx="4.8"></rect>
        <mask id="mask-2" fill="white">
            <use xlink:href="#path-1"></use>
        </mask>
        <use id="Notification-Icon" fill="#FA5680" xlink:href="#path-1"></use>
    </g>
</svg>
