<svg width="404" height="120" viewBox="0 0 404 120" fill="none" xmlns="http://www.w3.org/2000/svg"><path d="M206.99 61.2V31.57c0-2.62 1.95-4.57 4.49-4.57 2.62 0 4.49 1.95 4.49 4.57V61.8c0 9.06 5.42 14.73 14.05 14.73 8.55 0 13.89-5.67 13.89-14.73V31.57c0-2.62 1.86-4.57 4.49-4.57 2.54 0 4.49 1.95 4.49 4.57V61.2c0 14.22-9.14 23.54-22.86 23.54-13.98 0-23.04-9.31-23.04-23.54zM266.33 79.4902v-47.24c0-2.46 1.86-4.32 4.32-4.32h28.7c2.37 0 4.15 1.78 4.15 4.06 0 2.29-1.78 3.98-4.15 3.98h-24.04v14.31h17.36c2.29 0 3.98 1.69 3.98 3.89s-1.69 3.89-3.98 3.89h-17.36v17.7h25.06c2.37 0 4.15 1.69 4.15 3.98s-1.78 4.06-4.15 4.06h-29.72c-2.45.01-4.32-1.85-4.32-4.31zM313.06 76.1898c-.85-.93-1.35-2.03-1.35-3.13 0-2.37 1.95-4.06 4.15-4.06 1.02 0 1.95.34 2.71 1.19 3.05 3.64 7.45 6.52 12.95 6.52 5.93 0 9.65-3.13 9.65-7.79 0-3.64-2.03-5.5-8.21-8.38l-6.18-2.88c-8.89-4.15-13.04-8.81-13.04-15.49 0-8.81 7.53-15.16 17.61-15.16 7.28-.08 12.36 3.05 15.58 6.6 1.02 1.1 1.36 2.2 1.36 3.22 0 2.12-2.03 3.98-4.15 3.98-.93 0-1.86-.42-2.71-1.19-2.71-2.71-6.01-4.57-10.08-4.57-5.08 0-8.47 2.62-8.47 6.77 0 3.47 1.69 5.08 7.79 7.96l6.27 2.88c9.31 4.32 13.38 8.81 13.38 15.92 0 9.74-7.87 16.17-18.71 16.17-6.95-.01-14.23-3.31-18.55-8.56zM374.95 80.1702v-44.2h-15.07c-2.37 0-4.15-1.69-4.15-3.98s1.78-4.06 4.15-4.06h39.2c2.37 0 4.15 1.78 4.15 4.06 0 2.29-1.78 3.98-4.15 3.98h-15.15v44.2c0 2.62-1.95 4.57-4.49 4.57s-4.49-1.95-4.49-4.57zM197.11 76.71l-5-4.97c2.99-4.53 4.72-9.97 4.72-15.87 0-16.09-12.95-28.87-29.38-28.87s-29.29 12.7-29.29 28.87 12.87 28.87 29.29 28.87c7.13 0 13.61-2.4 18.65-6.43l4.71 4.68c1.86 1.86 4.55 1.92 6.35.12 1.8-1.79 1.8-4.55-.05-6.4zm-29.57-.18c-11.6 0-20.07-8.72-20.07-20.74 0-11.85 8.47-20.57 20.07-20.57 11.51 0 20.07 8.81 20.07 20.57 0 3.46-.74 6.65-2.04 9.45l-7.56-7.52c-1.86-1.86-4.55-1.92-6.35-.12-1.86 1.86-1.8 4.55.06 6.41l8.33 8.28c-3.38 2.67-7.68 4.24-12.51 4.24zM115.19 107.98L91.35 84.1399c3.33-4.33 5.79-9.38 7.13-14.92.59-2.44-.91-4.9-3.35-5.49-2.44-.59-4.9.91-5.49 3.35-2.67 11.04-11.53 19.9-22.57 22.57-2.44.59-3.94 3.05-3.35 5.49.5 2.08 2.36 3.48 4.42 3.48.35 0 .71-.04 1.07-.13 5.99-1.45 11.4-4.22 15.95-7.97L108.9 114.26c1.86 1.86 4.55 1.92 6.35.12 1.8-1.8 1.8-4.55-.06-6.4zM50.47 21.2099c-14.54 3.51-25.76 14.73-29.27 29.27-.59 2.44.91 4.9 3.35 5.49.36.09.72.13 1.07.13 2.05 0 3.91-1.4 4.42-3.48 2.66-11.05 11.53-19.91 22.57-22.57 2.44-.59 3.94-3.05 3.35-5.49-.59-2.44-3.05-3.94-5.49-3.35zM67.07 30.0499c11.04 2.67 19.9 11.53 22.57 22.57.5 2.08 2.36 3.48 4.42 3.48.35 0 .71-.04 1.07-.13 2.44-.59 3.94-3.05 3.35-5.49-3.52-14.54-14.73-25.76-29.27-29.27-2.43-.59-4.9.91-5.49 3.35-.59 2.44.91 4.89 3.35 5.49zM52.61 89.6499c-11.04-2.67-19.9-11.53-22.57-22.57-.59-2.44-3.04-3.94-5.49-3.35-2.44.59-3.94 3.05-3.35 5.49 3.52 14.54 14.73 25.76 29.27 29.27.36.09.72.13 1.07.13 2.05 0 3.91-1.4 4.42-3.48.59-2.44-.91-4.89-3.35-5.49z" fill="#003A52"/><path d="M59.84 119.7c-12.94 0-25.2601-4.07-35.6301-11.76-2.02-1.5-2.44-4.34-.94-6.36 1.5-2.0198 4.34-2.4398 6.36-.94 8.79 6.52 19.2401 9.97 30.2101 9.97 8.47 0 16.86-2.13 24.25-6.16 2.2-1.2 4.9699-.39 6.1699 1.82 1.2 2.2.39 4.97-1.82 6.17-8.72 4.75-18.6099 7.26-28.5999 7.26z" fill="#7EC57D"/><path d="M15.41 97.3198c-1.39 0-2.76-.64-3.65-1.84C4.06 85.1098 0 72.7898 0 59.8498c0-12.94 4.07-25.26 11.76-35.63 1.5-2.02 4.35-2.44 6.36-.94 2.02 1.5 2.44 4.34.94 6.36-6.52 8.79-9.97 19.24-9.97 30.21 0 10.97 3.45 21.42 9.97 30.21 1.5 2.02 1.07 4.86-.94 6.36-.82.61-1.77.9-2.71.9z" fill="#467A9E"/><path d="M92.76 19.96c-.94 0-1.89-.29-2.71-.9-8.79-6.52-19.24-9.97-30.21-9.97-10.97 0-21.42 3.45-30.21 9.97-2.02 1.5-4.86 1.07-6.36-.94-1.5-2.02-1.07-4.86.94-6.36C34.58 4.06 46.9 0 59.84 0 72.78 0 85.1 4.07 95.47 11.76c2.02 1.5 2.44 4.34.94 6.36-.89 1.21-2.26 1.84-3.65 1.84z" fill="#7EC57D"/><path d="M108.92 89.8998c-.71 0-1.43-.17-2.1-.52-2.23-1.16-3.09-3.9099-1.93-6.1299 3.79-7.27 5.71-15.1501 5.71-23.4001 0-10.9799-3.45-21.4199-9.97-30.2099-1.5001-2.02-1.0701-4.8601.94-6.3601 2.02-1.5 4.86-1.07 6.36.94 7.7 10.37 11.76 22.6901 11.76 35.63 0 9.6001-2.33 19.14-6.74 27.6-.81 1.56-2.39 2.45-4.03 2.45z" fill="#467A9E"/></svg>