<svg xmlns="http://www.w3.org/2000/svg" width="30" height="30" viewBox="0 0 30 30">
    <g fill="none" fill-rule="evenodd">
        <path fill="#FFF" fill-opacity="0" d="M0 0H44V30H0z"/>
        <rect width="22" height="22" x="4" y="4" fill="#80C17D" rx="3"/>
        <path fill="#FFF" fill-rule="nonzero" d="M23.125 12.422c0-.266-.094-.531-.281-.719l-1.422-1.406c-.188-.188-.438-.297-.703-.297-.266 0-.516.11-.703.297l-6.375 6.36-3.532-3.532c-.187-.188-.437-.297-.703-.297-.265 0-.515.11-.703.297l-1.422 1.406c-.187.188-.281.453-.281.719 0 .266.094.516.281.703l5.657 5.656c.187.188.453.297.703.297.265 0 .53-.11.718-.297l8.485-8.484c.187-.188.281-.438.281-.703z"/>
    </g>
</svg>
