<svg xmlns="http://www.w3.org/2000/svg" width="24" height="24" viewBox="0 0 24 24">
    <g fill="none" fill-rule="evenodd">
        <path fill="#6D7C8B" fill-rule="nonzero" d="M19 15.961c0 .274-.11.547-.306.744l-1.489 1.489c-.197.197-.47.306-.744.306-.273 0-.547-.11-.744-.306L12.5 14.976l-3.217 3.218c-.197.197-.47.306-.744.306s-.547-.11-.744-.306l-1.489-1.489c-.197-.197-.306-.47-.306-.744 0-.273.11-.547.306-.744L9.524 12 6.306 8.783C6.11 8.586 6 8.313 6 8.039s.11-.547.306-.744l1.489-1.489c.197-.197.47-.306.744-.306.273 0 .547.11.744.306L12.5 9.024l3.217-3.218c.197-.197.47-.306.744-.306s.547.11.744.306l1.489 1.489c.197.197.306.47.306.744 0 .273-.11.547-.306.744L15.476 12l3.218 3.217c.197.197.306.47.306.744z"/>
    </g>
</svg>
