<svg width="30" height="30" viewBox="0 0 30 30">
	<g fill="none" fillRule="evenodd" transform="translate(5 5)">
		<rect width="20" height="20" fill="#2D7930" rx="6" />
		<path
			fill="#FFF"
			fillRule="nonzero"
			d="M5.833 14.048v-1.134h.811l2.314-3.027-2.254-2.91h-.811V5.834h3.458v1.145h-.906l1.264 1.7c.095.097.155.172.203.246.023.032.047.065.06.107h.023c0 .011.107-.15.25-.353l1.229-1.7h-.883V5.833h3.327v1.145h-.799l-2.325 3.016 2.29 2.92h.81v1.134h-3.47v-1.134h.907l-1.276-1.722c-.084-.107-.155-.171-.203-.257-.024-.032-.048-.064-.06-.107H9.77c-.036 0-.108.16-.25.364l-1.23 1.722h.895v1.134h-3.35z"
		/>
	</g>
</svg>
