<svg xmlns="http://www.w3.org/2000/svg" width="24" height="24" viewBox="0 0 24 24">
    <g fill="none" fill-rule="evenodd">
        <circle cx="12" cy="12" r="8" fill="#023A52"/>
        <path fill="#FFF" fill-rule="nonzero" d="M12.844 13c.234 0 .435-.194.442-.429l.187-5.142c.007-.235-.18-.429-.415-.429h-2.143c-.234 0-.422.194-.415.429l.188 5.142c.006.235.207.429.442.429h1.714zm0 3.429c.234 0 .428-.195.428-.429v-1.5c0-.234-.194-.429-.428-.429H11.13c-.235 0-.429.195-.429.429V16c0 .234.194.429.429.429h1.714z"/>
    </g>
</svg>
