<svg xmlns="http://www.w3.org/2000/svg" width="24" height="25" viewBox="0 0 24 25">
    <g fill="none" fill-rule="evenodd" transform="translate(0 .5)">
        <circle cx="8" cy="8" r="7.25" fill="#FFF" stroke="#CCC" stroke-width="1.5" transform="translate(4 4)"/>
        <path fill="#CCC" fill-rule="nonzero" d="M12 9.727c.438 0 .797-.127 1.078-.38.281-.254.422-.582.422-.983 0-.402-.14-.73-.422-.983C12.797 7.127 12.438 7 12 7c-.438 0-.797.127-1.078.38-.281.254-.422.582-.422.984 0 .401.14.729.422.983.281.253.64.38 1.078.38zM13.5 17v-6.364h-3V17h3z"/>
    </g>
</svg>
