<svg width="30" height="30" viewBox="0 0 30 30">
	<g fill="none" fillRule="evenodd" transform="translate(5 5)">
		<rect width="20" height="20" fill="#00A6DF" rx="6" />
		<path
			fill="#FFF"
			fillRule="nonzero"
			d="M13.824 12.353c0-.16-.062-.306-.172-.417l-1.275-1.274c-.11-.11-.263-.172-.416-.172-.178 0-.319.068-.441.196.202.202.44.374.44.687 0 .324-.263.588-.587.588-.313 0-.485-.24-.687-.441-.128.122-.202.263-.202.447 0 .153.061.306.172.417l1.262 1.268c.11.11.263.165.417.165.153 0 .306-.055.416-.159l.901-.895c.11-.11.172-.257.172-.41zm-4.308-4.32c0-.153-.061-.306-.172-.417L8.082 6.348c-.11-.11-.263-.172-.417-.172-.153 0-.306.062-.416.166l-.901.895c-.11.11-.172.257-.172.41 0 .16.062.306.172.417l1.275 1.274c.11.11.263.166.416.166.178 0 .319-.062.441-.19-.202-.202-.44-.374-.44-.687 0-.324.263-.588.587-.588.313 0 .485.24.687.441.128-.122.202-.263.202-.447zM15 12.353c0 .466-.19.92-.52 1.244l-.902.894c-.33.331-.778.509-1.243.509-.472 0-.92-.184-1.25-.52l-1.263-1.27c-.33-.33-.508-.777-.508-1.243 0-.484.196-.944.539-1.28l-.54-.54c-.336.343-.79.54-1.274.54-.465 0-.919-.185-1.25-.515L5.515 8.897C5.178 8.56 5 8.12 5 7.647c0-.466.19-.92.52-1.244l.902-.894C6.752 5.178 7.2 5 7.665 5c.472 0 .92.184 1.25.52l1.263 1.27c.33.33.508.777.508 1.243 0 .484-.196.944-.539 1.28l.54.54c.336-.343.79-.54 1.274-.54.465 0 .919.185 1.25.515l1.274 1.275c.337.337.515.778.515 1.25z"
		/>
	</g>
</svg>
