<?xml version="1.0" encoding="UTF-8"?>
<svg width="30px" height="30px" viewBox="0 0 30 30" version="1.1" xmlns="http://www.w3.org/2000/svg" xmlns:xlink="http://www.w3.org/1999/xlink">
    <g id="STYLE" stroke="none" stroke-width="1" fill="none" fill-rule="evenodd">
        <g id="Iconography" transform="translate(-690.000000, -279.000000)" fill="#6A7C8D">
            <g id="Group-24" transform="translate(681.000000, 274.000000)">
                <g id="Group" transform="translate(4.000000, 0.000000)">
                    <g id="link" transform="translate(5.000000, 5.000000)">
                        <path d="M18.5833333,1.41666667 C17.6666667,0.583333333 16.5,0 15.1666667,0 C13.8333333,0 12.5833333,0.583333333 11.75,1.41666667 L9.66666667,3.5 C8.75,4.41666667 8.25,5.58333333 8.25,6.91666667 C8.25,7.41666667 8.33333333,7.91666667 8.5,8.41666667 C7.91666667,8.25 7.5,8.16666667 6.91666667,8.16666667 C5.58333333,8.16666667 4.33333333,8.75 3.5,9.58333333 L1.41666667,11.6666667 C0.583333333,12.5833333 0,13.75 0,15.1666667 C0,16.5 0.5,17.75 1.41666667,18.6666667 C2.25,19.5 3.5,20 4.83333333,20 C6.16666667,20 7.41666667,19.4166667 8.25,18.5833333 L10.3333333,16.5 C11.25,15.5833333 11.75,14.4166667 11.75,13.0833333 C11.75,12.5833333 11.6666667,12.0833333 11.5,11.5833333 C12,11.75 12.5,11.8333333 13,11.8333333 C14.3333333,11.8333333 15.5833333,11.25 16.4166667,10.4166667 L18.5,8.33333333 C19.4166667,7.41666667 20,6.25 20,4.83333333 C20,3.5 19.4166667,2.33333333 18.5833333,1.41666667 L18.5833333,1.41666667 Z M9.08333333,15.1666667 L7,17.25 C6.41666667,17.8333333 5.66666667,18.1666667 4.83333333,18.1666667 C4,18.1666667 3.16666667,17.8333333 2.66666667,17.3333333 C2.08333333,16.75 1.83333333,16 1.83333333,15.1666667 C1.83333333,14.3333333 2.16666667,13.5833333 2.75,13 L4.83333333,10.9166667 C5.33333333,10.3333333 6.16666667,10 6.91666667,10 C7.41666667,10 7.91666667,10.1666667 8.33333333,10.3333333 L5.66666667,13 L6.91666667,14.25 L9.58333333,11.5833333 C9.83333333,12 9.91666667,12.5 9.91666667,13 C10,13.8333333 9.66666667,14.6666667 9.08333333,15.1666667 L9.08333333,15.1666667 Z M17.25,7 L15.1666667,9.08333333 C14.5833333,9.66666667 13.8333333,10 13,10 C12.5,10 12,9.83333333 11.5833333,9.66666667 L14.25,7 L13,5.75 L10.3333333,8.41666667 C10.1666667,7.91666667 10,7.5 10,6.91666667 C10,6.08333333 10.3333333,5.33333333 10.9166667,4.75 L13,2.66666667 C13.5833333,2.08333333 14.3333333,1.75 15.1666667,1.75 C16,1.75 16.75,2.08333333 17.3333333,2.66666667 C17.9166667,3.25 18.25,4 18.25,4.83333333 C18.1666667,5.66666667 17.8333333,6.41666667 17.25,7 L17.25,7 Z" id="Shape"></path>
                    </g>
                </g>
            </g>
        </g>
    </g>
</svg>