<?xml version="1.0" encoding="UTF-8"?>
<svg width="20px" height="20px" viewBox="0 0 20 20" version="1.1"
    xmlns="http://www.w3.org/2000/svg"
    xmlns:xlink="http://www.w3.org/1999/xlink">
    <title>Locked</title>
    <g id="Grid-Indicator-Lock" stroke="none" stroke-width="1" fill="none" fill-rule="evenodd">
        <rect id="Rectangle" fill="#E5E8EB" x="0" y="0" width="20" height="20" rx="4.8"></rect>
        <path d="M7.33333333,9.36363636 L12.6666667,9.36363636 L12.6666667,7.45454545 C12.6666667,6.05255682 11.46875,4.90909091 10,4.90909091 C8.53125,4.90909091 7.33333333,6.05255682 7.33333333,7.45454545 L7.33333333,9.36363636 Z M16,10.3181818 L16,16.0454545 C16,16.5724432 15.5520833,17 15,17 L5,17 C4.44791667,17 4,16.5724432 4,16.0454545 L4,10.3181818 C4,9.79119318 4.44791667,9.36363636 5,9.36363636 L5.33333333,9.36363636 L5.33333333,7.45454545 C5.33333333,5.00852273 7.4375,3 10,3 C12.5625,3 14.6666667,5.00852273 14.6666667,7.45454545 L14.6666667,9.36363636 L15,9.36363636 C15.5520833,9.36363636 16,9.79119318 16,10.3181818 Z" id="" fill="#E0AC47" fill-rule="nonzero"></path>
    </g>
</svg>