<svg width="30" height="30" viewBox="0 0 30 30">
	<g fill="none" fillRule="evenodd">
		<rect
			width="20"
			height="20"
			fill="#F25543"
			rx="6"
			transform="translate(5 5)"
		/>
		<path
			fill="#FFF"
			fillRule="nonzero"
			d="M10.18 22c-.196 0-.384-.06-.544-.173-.587-.414-.665-.874-.628-1.188.102-.863 1.236-1.766 3.37-2.686.848-1.747 1.654-3.899 2.134-5.697-.562-1.151-1.108-2.645-.71-3.52.14-.308.313-.543.638-.645.129-.04.453-.091.573-.091.283 0 .533.344.71.556.166.2.543.622-.21 3.605.759 1.475 1.835 2.978 2.865 4.008.739-.126 1.374-.19 1.892-.19.882 0 1.416.193 1.634.592.18.33.106.715-.22 1.145-.313.412-.746.63-1.25.63-.685 0-1.482-.406-2.372-1.21-1.597.314-3.463.875-4.972 1.495-.47.94-.922 1.698-1.342 2.253-.577.76-1.075 1.116-1.568 1.116zm1.5-2.717c-1.204.637-1.695 1.16-1.73 1.455-.006.048-.02.177.243.366.084-.025.574-.235 1.487-1.82zm7.68-2.354c.459.332.571.5.871.5.132 0 .508-.005.682-.233.084-.111.116-.182.13-.22-.07-.035-.162-.105-.662-.105-.285 0-.643.013-1.021.058zm-4.207-3.488c-.403 1.311-.934 2.727-1.506 4.009 1.177-.43 2.457-.805 3.658-1.071-.76-.831-1.52-1.869-2.152-2.938zm-.342-4.485c-.055.018-.749.931.054 1.705.535-1.121-.03-1.712-.054-1.705z"
		/>
	</g>
</svg>
