<svg xmlns="http://www.w3.org/2000/svg" width="30" height="30" viewBox="0 0 30 30">
    <g fill="none">
        <path fill="#6D7C8B" d="M9.605 0C5.239 0 1.511 2.535 0 6.112c1.51 3.578 5.24 6.113 9.605 6.113 4.366 0 8.094-2.535 9.605-6.113C17.7 2.535 13.97 0 9.605 0z" transform="translate(5.5 9)"/>
        <g>
            <path fill="#FFF" d="M4.366 8.732C1.956 8.732 0 6.776 0 4.366 0 1.956 1.956 0 4.366 0c2.41 0 4.366 1.956 4.366 4.366 0 2.41-1.956 4.366-4.366 4.366z" transform="translate(5.5 9) translate(5.24 1.746)"/>
            <path fill="#7E92A3" d="M4.366 1.746c-1.45 0-2.62 1.17-2.62 2.62 0 1.45 1.17 2.62 2.62 2.62 1.45 0 2.62-1.17 2.62-2.62 0-1.45-1.17-2.62-2.62-2.62z" transform="translate(5.5 9) translate(5.24 1.746)"/>
        </g>
    </g>
</svg>
