<?xml version="1.0" encoding="utf-8"?>
<!-- Generator: Adobe Illustrator 23.0.6, SVG Export Plug-In . SVG Version: 6.00 Build 0)  -->
<svg version="1.0" id="Layer_1" xmlns="http://www.w3.org/2000/svg" xmlns:xlink="http://www.w3.org/1999/xlink" x="0px" y="0px"
	 viewBox="0 0 480 180" enable-background="new 0 0 480 180" xml:space="preserve">
<g>
	<path fill="#FFFFFF" d="M245.38,91.35V61.72c0-2.62,1.95-4.57,4.49-4.57c2.62,0,4.49,1.95,4.49,4.57v30.23
		c0,9.06,5.42,14.73,14.05,14.73c8.55,0,13.89-5.67,13.89-14.73V61.72c0-2.62,1.86-4.57,4.49-4.57c2.54,0,4.49,1.95,4.49,4.57v29.63
		c0,14.22-9.14,23.54-22.86,23.54C254.44,114.89,245.38,105.58,245.38,91.35z"/>
	<path fill="#FFFFFF" d="M304.72,109.64V62.4c0-2.46,1.86-4.32,4.32-4.32h28.7c2.37,0,4.15,1.78,4.15,4.06
		c0,2.29-1.78,3.98-4.15,3.98H313.7v14.31h17.36c2.29,0,3.98,1.69,3.98,3.89s-1.69,3.89-3.98,3.89H313.7v17.7h25.06
		c2.37,0,4.15,1.69,4.15,3.98c0,2.29-1.78,4.06-4.15,4.06h-29.72C306.59,113.96,304.72,112.1,304.72,109.64z"/>
	<path fill="#FFFFFF" d="M351.45,106.34c-0.85-0.93-1.35-2.03-1.35-3.13c0-2.37,1.95-4.06,4.15-4.06c1.02,0,1.95,0.34,2.71,1.19
		c3.05,3.64,7.45,6.52,12.95,6.52c5.93,0,9.65-3.13,9.65-7.79c0-3.64-2.03-5.5-8.21-8.38l-6.18-2.88
		c-8.89-4.15-13.04-8.81-13.04-15.49c0-8.81,7.53-15.16,17.61-15.16c7.28-0.08,12.36,3.05,15.58,6.6c1.02,1.1,1.36,2.2,1.36,3.22
		c0,2.12-2.03,3.98-4.15,3.98c-0.93,0-1.86-0.42-2.71-1.19c-2.71-2.71-6.01-4.57-10.08-4.57c-5.08,0-8.47,2.62-8.47,6.77
		c0,3.47,1.69,5.08,7.79,7.96l6.27,2.88c9.31,4.32,13.38,8.81,13.38,15.92c0,9.74-7.87,16.17-18.71,16.17
		C363.05,114.89,355.77,111.59,351.45,106.34z"/>
	<path fill="#FFFFFF" d="M413.34,110.32v-44.2h-15.07c-2.37,0-4.15-1.69-4.15-3.98c0-2.29,1.78-4.06,4.15-4.06h39.2
		c2.37,0,4.15,1.78,4.15,4.06c0,2.29-1.78,3.98-4.15,3.98h-15.15v44.2c0,2.62-1.95,4.57-4.49,4.57
		C415.29,114.89,413.34,112.94,413.34,110.32z"/>
	<path fill="#FFFFFF" d="M235.5,106.86l-5-4.97c2.99-4.53,4.72-9.97,4.72-15.87c0-16.09-12.95-28.87-29.38-28.87
		c-16.43,0-29.29,12.7-29.29,28.87c0,16.17,12.87,28.87,29.29,28.87c7.13,0,13.61-2.4,18.65-6.43l4.71,4.68
		c1.86,1.86,4.55,1.92,6.35,0.12C237.35,111.47,237.35,108.71,235.5,106.86z M205.93,106.68c-11.6,0-20.07-8.72-20.07-20.74
		c0-11.85,8.47-20.57,20.07-20.57c11.51,0,20.07,8.81,20.07,20.57c0,3.46-0.74,6.65-2.04,9.45l-7.56-7.52
		c-1.86-1.86-4.55-1.92-6.35-0.12c-1.86,1.86-1.8,4.55,0.06,6.41l8.33,8.28C215.06,105.11,210.76,106.68,205.93,106.68z"/>
	<g>
		<path fill="#FFFFFF" d="M153.58,138.13l-23.84-23.84c3.33-4.33,5.79-9.38,7.13-14.92c0.59-2.44-0.91-4.9-3.35-5.49
			c-2.44-0.59-4.9,0.91-5.49,3.35c-2.67,11.04-11.53,19.9-22.57,22.57c-2.44,0.59-3.94,3.05-3.35,5.49c0.5,2.08,2.36,3.48,4.42,3.48
			c0.35,0,0.71-0.04,1.07-0.13c5.99-1.45,11.4-4.22,15.95-7.97l23.74,23.74c1.86,1.86,4.55,1.92,6.35,0.12
			S155.44,139.98,153.58,138.13z"/>
		<path fill="#FFFFFF" d="M88.86,51.36C74.32,54.87,63.1,66.09,59.59,80.63c-0.59,2.44,0.91,4.9,3.35,5.49
			c0.36,0.09,0.72,0.13,1.07,0.13c2.05,0,3.91-1.4,4.42-3.48C71.09,71.72,79.96,62.86,91,60.2c2.44-0.59,3.94-3.05,3.35-5.49
			C93.76,52.27,91.3,50.77,88.86,51.36z"/>
		<path fill="#FFFFFF" d="M105.46,60.2c11.04,2.67,19.9,11.53,22.57,22.57c0.5,2.08,2.36,3.48,4.42,3.48c0.35,0,0.71-0.04,1.07-0.13
			c2.44-0.59,3.94-3.05,3.35-5.49c-3.52-14.54-14.73-25.76-29.27-29.27c-2.43-0.59-4.9,0.91-5.49,3.35
			C101.52,57.15,103.02,59.6,105.46,60.2z"/>
		<path fill="#FFFFFF" d="M91,119.8c-11.04-2.67-19.9-11.53-22.57-22.57c-0.59-2.44-3.04-3.94-5.49-3.35
			c-2.44,0.59-3.94,3.05-3.35,5.49c3.52,14.54,14.73,25.76,29.27,29.27c0.36,0.09,0.72,0.13,1.07,0.13c2.05,0,3.91-1.4,4.42-3.48
			C94.94,122.85,93.44,120.4,91,119.8z"/>
	</g>
	<g>
		<path fill="#7EC57D" d="M98.23,149.85c-12.94,0-25.26-4.07-35.63-11.76c-2.02-1.5-2.44-4.34-0.94-6.36
			c1.5-2.02,4.34-2.44,6.36-0.94c8.79,6.52,19.24,9.97,30.21,9.97c8.47,0,16.86-2.13,24.25-6.16c2.2-1.2,4.97-0.39,6.17,1.82
			c1.2,2.2,0.39,4.97-1.82,6.17C118.11,147.34,108.22,149.85,98.23,149.85z"/>
	</g>
	<g>
		<path fill="#467A9E" d="M53.8,127.47c-1.39,0-2.76-0.64-3.65-1.84c-7.7-10.37-11.76-22.69-11.76-35.63s4.07-25.26,11.76-35.63
			c1.5-2.02,4.35-2.44,6.36-0.94c2.02,1.5,2.44,4.34,0.94,6.36c-6.52,8.79-9.97,19.24-9.97,30.21s3.45,21.42,9.97,30.21
			c1.5,2.02,1.07,4.86-0.94,6.36C55.69,127.18,54.74,127.47,53.8,127.47z"/>
	</g>
	<g>
		<path fill="#7EC57D" d="M131.15,50.11c-0.94,0-1.89-0.29-2.71-0.9c-8.79-6.52-19.24-9.97-30.21-9.97
			c-10.97,0-21.42,3.45-30.21,9.97c-2.02,1.5-4.86,1.07-6.36-0.94c-1.5-2.02-1.07-4.86,0.94-6.36c10.37-7.7,22.69-11.76,35.63-11.76
			c12.94,0,25.26,4.07,35.63,11.76c2.02,1.5,2.44,4.34,0.94,6.36C133.91,49.48,132.54,50.11,131.15,50.11z"/>
	</g>
	<g>
		<path fill="#467A9E" d="M147.31,120.05c-0.71,0-1.43-0.17-2.1-0.52c-2.23-1.16-3.09-3.91-1.93-6.13
			c3.79-7.27,5.71-15.15,5.71-23.4c0-10.98-3.45-21.42-9.97-30.21c-1.5-2.02-1.07-4.86,0.94-6.36c2.02-1.5,4.86-1.07,6.36,0.94
			c7.7,10.37,11.76,22.69,11.76,35.63c0,9.6-2.33,19.14-6.74,27.6C150.53,119.16,148.95,120.05,147.31,120.05z"/>
	</g>
</g>
</svg>
