<?xml version="1.0" encoding="UTF-8"?>
<svg width="50px" height="50px" viewBox="0 0 50 50" version="1.1" xmlns="http://www.w3.org/2000/svg" xmlns:xlink="http://www.w3.org/1999/xlink">
    <g id="Page-1" stroke="none" stroke-width="1" fill="none" fill-rule="evenodd">
        <g id="Artboard" transform="translate(-1995.000000, -751.000000)" fill-rule="nonzero">
            <g id="refresh-grid" transform="translate(1995.000000, 751.000000)">
                <g id="r1ssxn31ib-link">
                    <path d="M6,0 L44,0 C47.314,0 50,2.686 50,6 L50,44 C50,47.314 47.314,50 44,50 L6,50 C2.686,50 0,47.314 0,44 L0,6 C0,2.686 2.686,0 6,0 Z" id="r1ssxn31ib"></path>
                </g>
                <g id="Group" transform="translate(13.000000, 15.000000)" fill="#FFFFFF">
                    <path d="M13.143,0 C7.7,0 3.286,4.478 3.286,10 L0,10 L4.381,14.444 L8.761,10 L5.477,10 C5.477,5.7 8.905,2.222 13.144,2.222 C17.38,2.222 20.81,5.7 20.81,10 C20.81,14.3 17.381,17.778 13.143,17.778 C11.489,17.778 9.956,17.233 8.696,16.333 L7.141,17.933 C8.806,19.223 10.887,20 13.143,20 C18.586,20 23,15.522 23,10 C23,4.478 18.586,0 13.143,0 Z" id="Path"></path>
                </g>
            </g>
        </g>
    </g>
</svg>
