<svg xmlns="http://www.w3.org/2000/svg" xmlns:xlink="http://www.w3.org/1999/xlink" width="24" height="24" viewBox="0 0 24 24">
    <defs>
        <path id="search_svg_id_a1" d="M13.857 11.143c0-2.757-2.243-5-5-5s-5 2.243-5 5 2.243 5 5 5 5-2.243 5-5zm5.714 9.286c0 .78-.647 1.428-1.428 1.428-.38 0-.748-.156-1.005-.424l-3.828-3.817C12.004 18.52 10.442 19 8.857 19 4.516 19 1 15.484 1 11.143 1 6.8 4.516 3.286 8.857 3.286c4.342 0 7.857 3.515 7.857 7.857 0 1.585-.48 3.147-1.384 4.453l3.829 3.828c.256.257.412.625.412 1.005z"/>
    </defs>
    <g fill="none" fill-rule="evenodd" opacity=".407">
        <path d="M0 0L24 0 24 24 0 24z"/>
        <mask id="search_svg_id_a2" fill="#fff">
            <use xlink:href="#search_svg_id_a1"/>
        </mask>
        <use fill="#676767" fill-rule="nonzero" xlink:href="#search_svg_id_a1"/>
        <g fill="#6D7C8B" mask="url(#search_svg_id_a2)">
            <path d="M0 0H24V24H0z"/>
        </g>
    </g>
</svg>
