<svg xmlns="http://www.w3.org/2000/svg" width="30" height="30" viewBox="0 0 30 30">
    <path fill="#6D7C8B" d="M18.846 13.462c0-2.97-2.416-5.385-5.384-5.385-2.97 0-5.385 2.416-5.385 5.385 0 2.968 2.416 5.384 5.385 5.384 2.968 0 5.384-2.416 5.384-5.384zm6.154 10c0 .84-.697 1.538-1.538 1.538-.41 0-.806-.168-1.082-.457l-4.123-4.11c-1.406.973-3.089 1.49-4.795 1.49C8.786 21.923 5 18.137 5 13.462 5 8.786 8.786 5 13.462 5c4.675 0 8.461 3.786 8.461 8.462 0 1.706-.517 3.389-1.49 4.795l4.122 4.123c.277.276.445.673.445 1.082z"/>
</svg>
