<svg xmlns="http://www.w3.org/2000/svg" width="30" height="30" viewBox="0 0 30 30">
    <g fill="none" fill-rule="evenodd">
        <circle cx="15" cy="15" r="11" fill="#7E92A3"/>
        <g fill="#FFF" fill-rule="nonzero">
            <path d="M5.596 9.332v-.686c.048-.361.165-.662.351-.903.187-.24.4-.454.641-.64.24-.187.497-.373.767-.56.271-.186.518-.412.74-.677.223-.264.41-.583.56-.956.15-.373.226-.849.226-1.426 0-.35-.076-.725-.226-1.128-.15-.404-.4-.78-.75-1.129-.348-.349-.808-.64-1.38-.875C5.953.117 5.241 0 4.386 0c-.662 0-1.26.111-1.796.334-.535.223-.993.532-1.372.93C.84 1.66.545 2.13.334 2.67.124 3.213.012 3.81 0 4.458h2.653c0-.325.036-.628.109-.911.072-.283.183-.53.334-.74.15-.21.343-.38.577-.506.235-.126.515-.19.84-.19.48 0 .857.133 1.128.398.27.265.406.674.406 1.227.012.325-.045.596-.172.813-.126.216-.292.415-.496.595-.205.18-.427.361-.668.542-.24.18-.47.394-.686.64-.216.247-.406.545-.568.894-.163.349-.262.782-.298 1.3v.812h2.437zM5.74 13.67L5.74 10.89 2.906 10.89 2.906 13.67z" transform="translate(11 8)"/>
        </g>
    </g>
</svg>
