<svg
    width="24"
    height="24"
    viewBox="0 0 24 24"
    fill="none"
    xmlns="http://www.w3.org/2000/svg"
>
    <path
        fillRule="evenodd"
        clipRule="evenodd"
        d="M22 12c0 5.5228-4.4772 10-10 10-5.5229 0-10-4.4772-10-10C2 6.4771 6.4771 2 12 2c5.5228 0 10 4.4771 10 10zM8.1529 12c0 .8494-.6886 1.538-1.538 1.538s-1.538-.6886-1.538-1.538.6886-1.538 1.538-1.538 1.538.6886 1.538 1.538zm3.847 1.538c.8494 0 1.538-.6886 1.538-1.538s-.6886-1.538-1.538-1.538-1.538.6886-1.538 1.538.6886 1.538 1.538 1.538zM18.9229 12c0 .8494-.6886 1.538-1.538 1.538s-1.538-.6886-1.538-1.538.6886-1.538 1.538-1.538 1.538.6886 1.538 1.538z"
        fill="#C3CAD2"
    />
</svg>