<svg width="30" height="30" viewBox="0 0 30 30">
	<g fill="none" fillRule="evenodd" transform="translate(5 5)">
		<rect width="20" height="20" fill="#2B579A" rx="6" />
		<path
			fill="#FFF"
			fillRule="nonzero"
			d="M4.884 7.404V6.31h3.069v1.094h-.92l1.012 4.481c.04.164.061.338.072.47l.02.216h.041l.04-.215c.032-.133.042-.307.083-.47L9.774 6.31h1.166l1.474 5.575c.04.164.06.338.092.47.01.072.03.154.03.216h.041l.02-.215c.01-.133.031-.307.072-.47l1.013-4.482h-.92V6.31h3.069v1.094h-.717l-1.677 6.763H11.81L10.5 9.205c-.05-.164-.061-.328-.092-.47l-.03-.246h-.041c0 .081-.01.163-.02.245-.021.164-.052.317-.103.47l-1.31 4.963H7.278L5.6 7.404h-.716z"
		/>
	</g>
</svg>
